:FULLY-SPECIFIED
:FORCE-ALL-JOINTS-BE-3DOF
:DEGREES
510
root -4.24065 14.8609 -41.375 2.60722 -2.71984 -6.76827
lfemur -31.3062 25.4429 -18.0559
ltibia 65.7139 -0 0
lfoot -25.1158 28.8764 -0.139827
ltoes -4.14476 0 0
rfemur -33.1464 -9.75493 10.9608
rtibia 72.654 -0 0
rfoot -6.08685 -10.7309 0.102418
rtoes 12.0832 -0 0
lowerback 16.3947 -0.130982 -7.04832
upperback -0.303316 -1.25419 3.09247
thorax -9.32837 -0.177683 7.73015
lowerneck 4.11066 -14.8785 -15.5874
upperneck 1.97705 -21.2016 17.6597
head 3.6562 -10.7286 6.90988
lclavicle 1.3159e-14 -2.37716e-16 4.99107e-32
lhumerus -33.4659 -47.9615 109.284
lradius 89.4124 -0 0
lwrist 42.7878 0 0
lhand -7.69588 45.1603 -0.207907
lfingers 7.12502 -0 0
lthumb 18.1981 74.2798 -0.21276
rclavicle 1.3159e-14 -2.37716e-16 4.99107e-32
rhumerus 44.0528 25.8164 -37.6747
rradius 88.9213 -0 0
rwrist -20.6256 0 0
rhand -2.95472 -19.607 0.24886
rfingers 7.12502 -0 0
rthumb 22.6782 -47.3039 0.502972
511
root -4.36477 14.8395 -41.4253 2.35095 -6.58862 -6.437
lfemur -29.1477 24.709 -16.8759
ltibia 65.0431 -0 0
lfoot -24.8107 28.5885 -0.144492
ltoes -5.43694 0 0
rfemur -34.24 -10.5436 10.6539
rtibia 72.3092 -0 0
rfoot -6.0347 -9.49091 0.105856
rtoes 11.8012 -0 0
lowerback 16.4397 0.00333012 -7.11735
upperback -0.248511 -1.10714 2.95249
thorax -9.32082 -0.110886 7.57886
lowerneck 3.7729 -14.6849 -15.457
upperneck 2.38542 -20.9115 17.2049
head 3.72197 -10.5646 6.75825
lclavicle 1.33057e-14 -4.51178e-16 5.15742e-32
lhumerus -36.0611 -45.8563 109.5
lradius 90.2603 -0 0
lwrist 44.7998 0 0
lhand -8.00945 45.5769 -0.214846
lfingers 7.12502 -0 0
lthumb 17.8962 74.7227 -0.219861
rclavicle 1.33057e-14 -4.51178e-16 5.15742e-32
rhumerus 41.6116 24.8575 -39.3142
rradius 86.4836 -0 0
rwrist -19.5758 0 0
rhand -4.27274 -19.7263 0.257224
rfingers 7.12502 -0 0
rthumb 21.412 -47.5549 0.519871
512
root -4.4904 14.8178 -41.4761 2.06576 -10.5028 -6.08034
lfemur -26.9933 23.9259 -15.7202
ltibia 64.3643 -0 0
lfoot -24.5019 28.2971 -0.147652
ltoes -6.74484 0 0
rfemur -35.3454 -11.3475 10.3581
rtibia 71.9602 -0 0
rfoot -5.98185 -8.2358 0.108187
rtoes 11.5158 -0 0
lowerback 16.485 0.139331 -7.18712
upperback -0.193408 -0.958154 2.81095
thorax -9.31337 -0.0432559 7.42575
lowerneck 3.4318 -14.4881 -15.3262
upperneck 2.79545 -20.6149 16.7478
head 3.78804 -10.3984 6.60506
lclavicle 1.34543e-14 -6.67237e-16 5.27012e-32
lhumerus -38.5819 -43.721 109.576
lradius 91.1184 -0 0
lwrist 46.8362 0 0
lhand -8.32688 45.9986 -0.219547
lfingers 7.12502 -0 0
lthumb 17.5906 75.171 -0.224672
rclavicle 1.34543e-14 -6.67237e-16 5.27012e-32
rhumerus 39.1915 23.8243 -40.9136
rradius 84.0163 -0 0
rwrist -18.5133 0 0
rhand -5.60681 -19.8472 0.262893
rfingers 7.12502 -0 0
rthumb 20.1303 -47.8092 0.531324
513
root -4.61694 14.796 -41.5273 1.74872 -14.4433 -5.69531
lfemur -24.8544 23.098 -14.5965
ltibia 63.6805 -0 0
lfoot -24.1909 28.0036 -0.149247
ltoes -8.06217 0 0
rfemur -36.4578 -12.1628 10.0754
rtibia 71.6086 -0 0
rfoot -5.92859 -6.97164 0.109364
rtoes 11.2282 -0 0
lowerback 16.5305 0.276368 -7.25728
upperback -0.138282 -0.807961 2.66854
thorax -9.30604 0.0248813 7.27153
lowerneck 3.08901 -14.2892 -15.1959
upperneck 3.20506 -20.313 16.2905
head 3.85411 -10.2309 6.45105
lclavicle 1.36039e-14 -8.84852e-16 5.32701e-32
lhumerus -41.0311 -41.57 109.523
lradius 91.9828 -0 0
lwrist 48.8873 0 0
lhand -8.64662 46.4233 -0.22192
lfingers 7.12502 -0 0
lthumb 17.2828 75.6225 -0.227101
rclavicle 1.36039e-14 -8.84852e-16 5.32701e-32
rhumerus 36.806 22.7229 -42.4625
rradius 81.5311 -0 0
rwrist -17.4431 0 0
rhand -6.9505 -19.9691 0.265756
rfingers 7.12502 -0 0
rthumb 18.8393 -48.0655 0.537107
514
root -4.74377 14.7742 -41.5786 1.39642 -18.391 -5.27841
lfemur -22.7415 22.2304 -13.5113
ltibia 62.9951 -0 0
lfoot -23.8791 27.7093 -0.149247
ltoes -9.38264 0 0
rfemur -37.5723 -12.9852 9.80743
rtibia 71.2563 -0 0
rfoot -5.87518 -5.70446 0.109364
rtoes 10.94 -0 0
lowerback 16.5759 0.413788 -7.3275
upperback -0.0834009 -0.657273 2.52595
thorax -9.29888 0.0932007 7.11696
lowerneck 2.74618 -14.089 -15.0666
upperneck 3.61226 -20.0074 15.8354
head 3.91983 -10.0628 6.29694
lclavicle 1.37538e-14 -1.10299e-15 5.32701e-32
lhumerus -43.4112 -39.4175 109.352
lradius 92.8491 -0 0
lwrist 50.9434 0 0
lhand -8.96714 46.8491 -0.22192
lfingers 7.12502 -0 0
lthumb 16.9743 76.0752 -0.227101
rclavicle 1.37538e-14 -1.10299e-15 5.32701e-32
rhumerus 34.4669 21.5611 -43.9519
rradius 79.0401 -0 0
rwrist -16.3703 0 0
rhand -8.2974 -20.0914 0.265756
rfingers 7.12502 -0 0
rthumb 17.5452 -48.3225 0.537107
515
root -4.8703 14.7523 -41.6298 1.00497 -22.3265 -4.82563
lfemur -20.6647 21.3289 -12.4702
ltibia 62.3113 -0 0
lfoot -23.5681 27.4158 -0.147652
ltoes -10.7 0 0
rfemur -38.6839 -13.8106 9.55568
rtibia 70.9047 -0 0
rfoot -5.82192 -4.4403 0.108187
rtoes 10.6525 -0 0
lowerback 16.6211 0.550936 -7.39745
upperback -0.0290261 -0.506808 2.38384
thorax -9.29191 0.161376 6.96276
lowerneck 2.40492 -13.8886 -14.939
upperneck 4.01513 -19.6995 15.3845
head 3.98491 -9.89488 6.14348
lclavicle 1.39034e-14 -1.3206e-15 5.27012e-32
lhumerus -45.7242 -37.2771 109.075
lradius 93.7135 -0 0
lwrist 52.9945 0 0
lhand -9.28688 47.2738 -0.219547
lfingers 7.12502 -0 0
lthumb 16.6665 76.5267 -0.224672
rclavicle 1.39034e-14 -1.3206e-15 5.27012e-32
rhumerus 32.1847 20.3475 -45.3743
rradius 76.5549 -0 0
rwrist -15.3001 0 0
rhand -9.64109 -20.2133 0.262893
rfingers 7.12502 -0 0
rthumb 16.2542 -48.5788 0.531324
516
root -4.99593 14.7307 -41.6807 0.569879 -26.2308 -4.33237
lfemur -18.6328 20.4001 -11.4781
ltibia 61.6325 -0 0
lfoot -23.2593 27.1244 -0.144492
ltoes -12.0079 0 0
rfemur -39.788 -14.6346 9.32124
rtibia 70.5557 -0 0
rfoot -5.76907 -3.18519 0.105856
rtoes 10.3671 -0 0
lowerback 16.6658 0.687157 -7.46679
upperback 0.0245891 -0.357288 2.24289
thorax -9.28518 0.229082 6.80968
lowerneck 2.06686 -13.6888 -14.8136
upperneck 4.41179 -19.3909 14.94
head 4.04904 -9.72803 5.99138
lclavicle 1.4052e-14 -1.53666e-15 5.15742e-32
lhumerus -47.9716 -35.1623 108.702
lradius 94.5716 -0 0
lwrist 55.0309 0 0
lhand -9.60431 47.6955 -0.214846
lfingers 7.12502 -0 0
lthumb 16.3609 76.975 -0.219861
rclavicle 1.4052e-14 -1.53666e-15 5.15742e-32
rhumerus 29.9685 19.0917 -46.7241
rradius 74.0876 -0 0
rwrist -14.2376 0 0
rhand -10.9752 -20.3342 0.257224
rfingers 7.12502 -0 0
rthumb 14.9725 -48.8331 0.519871
